<?xml version="1.0" standalone="no"?>
<!DOCTYPE svg PUBLIC "-//W3C//DTD SVG 20010904//EN"
 "http://www.w3.org/TR/2001/REC-SVG-20010904/DTD/svg10.dtd">
<svg version="1.0" xmlns="http://www.w3.org/2000/svg"
 width="2816.000000pt" height="1536.000000pt" viewBox="0 0 2816.000000 1536.000000"
 preserveAspectRatio="xMidYMid meet">

<g transform="translate(0.000000,1536.000000) scale(0.100000,-0.100000)"
fill="#000000" stroke="none">
<path d="M7938 10071 c-118 -38 -215 -123 -266 -233 l-27 -58 -2121 0 c-2088
0 -2123 0 -2186 -20 -125 -39 -224 -121 -282 -237 -52 -104 -56 -143 -56 -593
0 -375 2 -418 18 -450 23 -46 70 -76 132 -84 162 -21 355 -136 457 -270 176
-233 203 -532 72 -789 -33 -63 -63 -103 -134 -173 -76 -76 -106 -99 -185 -138
-62 -30 -128 -54 -190 -67 -63 -13 -103 -28 -118 -42 -52 -49 -52 -45 -51
-504 0 -371 2 -437 17 -494 36 -136 127 -243 262 -308 l75 -36 3295 -3 c3045
-3 3300 -2 3358 14 154 41 295 187 331 345 6 26 11 224 11 484 0 419 -1 442
-20 472 -23 38 -59 58 -120 67 -280 43 -512 251 -591 531 -30 103 -32 278 -6
375 40 150 142 306 257 392 84 63 204 116 308 137 180 36 172 11 172 548 0
348 -3 440 -15 486 -42 163 -161 290 -316 338 -55 17 -96 19 -440 19 -399 0
-422 -2 -460 -46 -9 -11 -69 -129 -132 -264 -63 -135 -235 -499 -382 -810
-147 -311 -394 -835 -550 -1165 -320 -681 -337 -715 -345 -715 -5 0 -413 861
-629 1327 l-79 171 22 21 c36 34 84 123 101 186 42 163 -6 328 -127 440 -146
136 -346 162 -518 69 -62 -34 -168 -144 -194 -201 l-19 -42 -606 -3 -606 -3
-73 -27 c-106 -38 -177 -83 -257 -163 -79 -79 -142 -186 -171 -295 -23 -88
-23 -254 0 -340 45 -164 162 -310 311 -387 148 -76 142 -76 680 -82 525 -7
515 -6 608 -70 113 -77 177 -192 185 -331 11 -201 -88 -356 -277 -432 l-56
-23 -1357 -3 -1358 -2 0 53 0 54 78 28 c160 57 281 135 400 259 182 189 274
423 274 691 0 282 -98 521 -297 720 -118 118 -228 187 -364 231 l-90 29 -3
325 c-2 179 0 345 4 369 10 55 47 105 98 131 39 20 62 20 2148 20 l2108 0 23
-56 c67 -161 261 -270 445 -249 210 23 362 169 397 381 28 170 -63 366 -209
451 -106 62 -251 80 -364 44z m232 -291 c37 -26 69 -90 70 -138 0 -78 -66
-156 -142 -167 -117 -18 -221 98 -189 207 14 47 56 96 96 114 44 21 125 13
165 -16z m1789 -298 c19 -9 48 -34 65 -55 l31 -39 3 -367 3 -367 -48 -12
c-135 -36 -339 -164 -439 -275 -101 -113 -181 -259 -230 -422 -25 -82 -28
-105 -28 -260 0 -144 3 -183 22 -259 84 -332 334 -600 662 -711 l65 -22 3
-327 c1 -218 -1 -342 -9 -369 -14 -54 -81 -121 -134 -136 -54 -15 -6443 -16
-6497 -1 -48 14 -94 53 -118 101 -17 33 -20 59 -20 194 l0 155 1339 0 c1435 0
1409 -1 1544 50 81 30 195 109 260 179 123 133 178 270 185 453 5 149 -13 236
-76 361 -80 160 -219 279 -409 349 -55 21 -80 22 -543 28 -480 6 -486 6 -545
30 -43 16 -77 41 -121 84 -77 77 -104 143 -104 251 0 149 70 261 204 330 l79
40 578 3 578 3 21 -48 c48 -108 147 -204 253 -245 29 -11 88 -23 132 -27 76
-6 80 -7 94 -36 8 -16 182 -385 387 -820 454 -962 440 -934 483 -962 56 -37
149 -26 193 24 16 17 1306 2743 1459 3081 l28 62 308 0 c273 0 312 -2 342 -18z
m-3189 -734 c107 -54 120 -193 27 -275 -61 -53 -145 -54 -211 -2 -93 73 -72
230 37 280 55 25 93 24 147 -3z"/>
<path d="M12064 9016 c-360 -59 -585 -278 -584 -570 1 -239 112 -383 375 -485
55 -22 204 -65 330 -96 127 -32 256 -67 287 -80 170 -69 243 -184 203 -321
-42 -145 -194 -218 -455 -217 -245 0 -431 62 -620 205 -61 46 -49 55 -127 -97
l-55 -109 33 -29 c49 -42 173 -112 258 -148 248 -103 590 -125 837 -53 231 67
390 211 439 399 32 123 13 290 -42 385 -93 158 -257 243 -657 340 -288 69
-375 105 -444 184 -79 91 -63 229 39 320 90 82 238 122 419 112 162 -8 289
-47 445 -134 33 -18 63 -34 68 -35 8 -2 106 218 107 239 0 15 -135 90 -223
124 -168 66 -455 95 -633 66z"/>
<path d="M13480 8000 l0 -1000 155 0 155 0 0 1000 0 1000 -155 0 -155 0 0
-1000z"/>
<path d="M14190 8865 l0 -135 340 0 340 0 0 -865 0 -865 160 0 160 0 0 865 0
865 340 0 340 0 0 135 0 135 -840 0 -840 0 0 -135z"/>
<path d="M16260 8000 l0 -1000 155 0 155 0 0 1000 0 1000 -155 0 -155 0 0
-1000z"/>
<path d="M16982 8903 c126 -304 727 -1699 809 -1876 l12 -27 155 2 155 3 102
235 c112 258 745 1727 752 1748 4 10 -29 12 -158 10 l-164 -3 -262 -610 c-144
-335 -297 -692 -340 -792 -43 -101 -80 -183 -83 -183 -4 0 -566 1313 -665
1553 l-15 37 -169 0 -170 0 41 -97z"/>
<path d="M19310 8000 l0 -1000 750 0 750 0 0 135 0 135 -590 0 -590 0 0 310 0
310 500 0 500 0 0 135 0 135 -497 0 -498 0 -3 285 -2 285 565 0 565 0 0 135 0
135 -725 0 -725 0 0 -1000z"/>
<path d="M21292 8003 l3 -998 157 -3 158 -3 2 723 3 722 171 -214 c483 -608
770 -969 868 -1092 l110 -138 138 0 138 0 0 1000 0 1000 -160 0 -160 0 -2
-721 -3 -722 -395 498 c-217 274 -475 598 -573 721 l-178 224 -140 0 -139 0 2
-997z"/>
<path d="M23430 8865 l0 -135 340 0 340 0 0 -865 0 -865 160 0 160 0 0 865 0
865 340 0 340 0 0 135 0 135 -840 0 -840 0 0 -135z"/>
</g>
</svg>
